<svg width="150" height="150" viewBox="0 0 150 150" fill="none" xmlns="http://www.w3.org/2000/svg">
<path d="M63.198 0C63.198 1.02352 63.198 2.02943 63.198 3.03535C63.198 34.1558 63.243 65.2763 63.1531 96.3968C63.1406 101.301 62.7136 106.222 62.1618 111.101C61.3453 118.283 57.6697 121.731 50.471 121.769C45.5395 121.796 40.6029 121.15 35.3343 120.783C35.3343 126.26 35.3343 131.868 35.3343 137.657C12.959 125.189 -6.29014 93.2961 1.93987 57.0027C9.95015 21.6724 40.7877 1.83077 63.198 0Z" fill="#5E5E5E"/>
<path fill-rule="evenodd" clip-rule="evenodd" d="M75.2522 150C73.6591 148.584 75.0382 148.318 76.06 147.893C83.8242 144.65 89.7008 139.21 92.3208 131.298C94.3065 125.307 95.7561 118.846 95.8518 112.571C96.3627 79.4201 96.3702 46.2622 96.5464 13.1092C96.564 9.87365 96.5489 6.64057 96.5489 2.84937C97.9558 2.84937 99.7678 3.13848 101.039 3.66141C128.283 14.9043 145.419 34.7478 149.219 64.1045C153.448 96.7496 140.398 122.021 112.555 139.443C102.665 145.63 91.3996 149.351 79.6842 149.997L75.2522 150Z" fill="#EF5000"/>
</svg>
