<svg version="1.1" xmlns="http://www.w3.org/2000/svg" xmlns:xlink="http://www.w3.org/1999/xlink"  width="800px"
	 height="800px" viewBox="0 0 100 100" enable-background="new 0 0 100 100" xml:space="preserve">
	<path fill="transparent" stroke="#5e7373" stroke-width="4" stroke-linecap="round" stroke-linejoin="round" stroke-miterlimit="10" d="
		M50.915,26.824C63.385,27.208,73.375,37.437,73.375,50c0,12.806-10.381,23.188-23.188,23.188c-11.303,0-20.717-8.087-22.771-18.79
		c-0.154-0.804-0.262-1.566-0.331-2.397"/>
	<g>
		<ellipse transform="matrix(0.9962 -0.0867 0.0867 0.9962 -3.713 2.567)" cx="27.71" cy="44.049" rx="1.959" ry="1.959" fill="#5e7373"/>
		<ellipse transform="matrix(0.9962 -0.0867 0.0867 0.9962 -3.079 2.8158)" cx="30.892" cy="36.872" rx="1.959" ry="1.959" fill="#5e7373"/>
		<ellipse transform="matrix(0.9962 -0.0867 0.0867 0.9962 -2.567 3.266)" cx="36.334" cy="31.199" rx="1.959" ry="1.959" fill="#5e7373"/>
		<ellipse transform="matrix(0.9962 -0.0867 0.0867 0.9962 -2.2318 3.8617)" cx="43.363" cy="27.636" rx="1.959" ry="1.959" fill="#5e7373"/>
	</g>
</svg>