<svg width="500" height="469" viewBox="0 0 500 469" fill="none" xmlns="http://www.w3.org/2000/svg">
<path d="M295.514 375.194C295.514 314.039 345.107 264.46 406.249 264.46C429.437 264.46 450.952 271.616 468.749 283.804V218.946H484.374C493.015 218.946 500 211.978 500 203.305V140.82C500 132.195 493.015 125.194 484.374 125.194H15.6255C7.00047 125.196 0 132.196 0 140.82V203.303C0 211.974 7.00047 218.944 15.6255 218.944H31.2511V437.693C31.2511 454.958 45.2503 468.942 62.5004 468.942H347.515C316.327 449.351 295.514 414.741 295.514 375.194Z" fill="#F4B459"/>
<path d="M295.514 375.194C295.514 370.413 295.92 365.757 296.498 361.131C287.607 364.444 281.248 372.929 281.248 382.991C281.248 394.334 289.278 403.772 299.936 405.96C297.123 396.194 295.514 385.882 295.514 375.194Z" fill="#9E7E3A"/>
<path d="M295.514 375.194C295.514 314.039 345.107 264.46 406.249 264.46C411.607 264.46 416.843 264.96 421.999 265.709L468.749 218.944H31.2493V437.679C31.2493 454.945 45.2486 468.929 62.4987 468.929H218.78L296.764 390.945C296.03 385.788 295.514 380.555 295.514 375.194Z" fill="#DBA250"/>
<path d="M117.186 328.319C130.13 328.319 140.623 317.826 140.623 304.883C140.623 291.939 130.13 281.446 117.186 281.446C104.243 281.446 93.7498 291.939 93.7498 304.883C93.7498 317.826 104.243 328.319 117.186 328.319Z" fill="#9E7E3A"/>
<path d="M195.312 328.319C208.256 328.319 218.749 317.826 218.749 304.883C218.749 291.939 208.256 281.446 195.312 281.446C182.369 281.446 171.876 291.939 171.876 304.883C171.876 317.826 182.369 328.319 195.312 328.319Z" fill="#9E7E3A"/>
<path d="M117.186 406.443C130.13 406.443 140.623 395.95 140.623 383.007C140.623 370.063 130.13 359.57 117.186 359.57C104.243 359.57 93.7498 370.063 93.7498 383.007C93.7498 395.95 104.243 406.443 117.186 406.443Z" fill="#9E7E3A"/>
<path d="M195.312 406.443C208.256 406.443 218.749 395.95 218.749 383.007C218.749 370.063 208.256 359.57 195.312 359.57C182.369 359.57 171.876 370.063 171.876 383.007C171.876 395.95 182.369 406.443 195.312 406.443Z" fill="#9E7E3A"/>
<path d="M396.061 9.86707C382.904 -3.28902 361.576 -3.28902 348.389 9.86707L228.421 129.835C215.265 143.022 215.265 164.35 228.421 177.522C241.593 190.694 262.937 190.694 276.093 177.522L396.061 57.5388C409.232 44.3673 409.232 23.0249 396.061 9.86707Z" fill="#475F6C"/>
<path d="M195.312 328.335C208.256 328.335 218.749 317.842 218.749 304.898C218.749 291.954 208.256 281.461 195.312 281.461C182.369 281.461 171.876 291.954 171.876 304.898C171.876 317.842 182.369 328.335 195.312 328.335Z" fill="#8E7133"/>
<path d="M117.186 328.335C130.13 328.335 140.623 317.842 140.623 304.898C140.623 291.954 130.13 281.461 117.186 281.461C104.243 281.461 93.7498 291.954 93.7498 304.898C93.7498 317.842 104.243 328.335 117.186 328.335Z" fill="#8E7133"/>
<path d="M195.312 406.459C208.256 406.459 218.749 395.966 218.749 383.022C218.749 370.079 208.256 359.586 195.312 359.586C182.369 359.586 171.876 370.079 171.876 383.022C171.876 395.966 182.369 406.459 195.312 406.459Z" fill="#8E7133"/>
<path d="M117.186 406.459C130.13 406.459 140.623 395.966 140.623 383.022C140.623 370.079 130.13 359.586 117.186 359.586C104.243 359.586 93.7498 370.079 93.7498 383.022C93.7498 395.966 104.243 406.459 117.186 406.459Z" fill="#8E7133"/>
<path d="M406.248 281.444C458.03 281.444 499.998 323.413 499.998 375.194C499.998 426.96 458.03 468.944 406.248 468.944C354.483 468.944 312.499 426.96 312.499 375.194C312.499 323.413 354.483 281.444 406.248 281.444Z" fill="#3DB39E"/>
<path d="M437.498 359.57H421.872V343.945C421.872 335.304 414.887 328.319 406.247 328.319C397.606 328.319 390.621 335.304 390.621 343.945V359.57H374.996C366.355 359.57 359.37 366.555 359.37 375.196C359.37 383.836 366.355 390.821 374.996 390.821H390.621V406.447C390.621 415.087 397.606 422.072 406.247 422.072C414.887 422.072 421.872 415.087 421.872 406.447V390.821H437.498C446.138 390.821 453.123 383.836 453.123 375.196C453.123 366.554 446.138 359.57 437.498 359.57Z" fill="white"/>
<path d="M295.514 375.194C295.514 370.413 295.92 365.757 296.498 361.131C287.607 364.444 281.248 372.929 281.248 382.991C281.248 389.476 283.873 395.335 288.108 399.585L296.763 390.929C296.015 385.788 295.514 380.555 295.514 375.194Z" fill="#8E7133"/>
<path d="M306.108 328.194C311.375 316.959 318.421 306.757 326.968 297.975C324.015 288.428 315.201 281.444 304.686 281.444C291.749 281.444 281.249 291.944 281.249 304.881C281.249 317.835 291.749 328.318 304.686 328.318L306.108 328.194Z" fill="#8E7133"/>
</svg>
